<?xml version="1.0"?>
<svg xmlns="http://www.w3.org/2000/svg" xmlns:xlink="http://www.w3.org/1999/xlink" xmlns:svgjs="http://svgjs.com/svgjs" version="1.1" width="512" height="512" x="0" y="0" viewBox="0 0 512 512" style="enable-background:new 0 0 512 512" xml:space="preserve" class=""><g><g xmlns="http://www.w3.org/2000/svg" id="XMLID_2215_"><g id="XMLID_282_"><path id="XMLID_285_" d="m490.506 290.723c.991-11.519 1.494-23.154 1.494-34.723s-.503-23.204-1.494-34.723c2.457-.26 4.746-1.424 6.408-3.286 1.897-2.126 2.797-4.961 2.474-7.793-2.216-19.393-5.873-38.72-10.869-57.443-1.168-4.376-5.132-7.421-9.662-7.421h-2.415c-7.069-24.543-16.516-48.39-28.168-71.149 1.165-.813 2.17-1.862 2.912-3.128 1.795-3.063 1.832-6.846.098-9.943-11.325-20.222-24.466-39.545-39.057-57.434-1.899-2.329-4.745-3.68-7.749-3.68h-296.956c-3.005 0-5.85 1.351-7.749 3.68-14.591 17.889-27.732 37.213-39.057 57.434-1.734 3.097-1.697 6.881.098 9.943.742 1.266 1.748 2.315 2.912 3.128-11.652 22.759-21.102 46.607-28.17 71.149h-2.412c-4.53 0-8.494 3.045-9.662 7.421-4.997 18.72-8.653 38.047-10.87 57.443-.323 2.832.577 5.667 2.474 7.793 1.661 1.862 3.95 3.026 6.408 3.286-.991 11.52-1.494 23.155-1.494 34.723s.503 23.203 1.494 34.723c-2.457.26-4.746 1.424-6.408 3.286-1.897 2.126-2.797 4.961-2.474 7.793 2.216 19.396 5.873 38.723 10.87 57.443 1.168 4.376 5.132 7.421 9.662 7.421h2.415c7.068 24.542 16.515 48.389 28.168 71.149-1.164.813-2.17 1.862-2.912 3.128-1.795 3.062-1.832 6.846-.098 9.943 11.326 20.223 24.466 39.547 39.057 57.435 1.899 2.328 4.745 3.679 7.749 3.679h103.477c5.523 0 10-4.477 10-10s-4.477-10-10-10h-98.692c-9.108-11.458-17.595-23.51-25.355-36h338.092c-7.761 12.491-16.246 24.541-25.354 36h-98.691c-5.522 0-10 4.477-10 10s4.478 10 10 10h103.478c3.005 0 5.85-1.351 7.749-3.679 14.59-17.887 27.73-37.211 39.057-57.434 1.734-3.097 1.697-6.881-.098-9.943-.742-1.266-1.748-2.315-2.912-3.128 11.653-22.758 21.098-46.606 28.167-71.149h2.416c4.53 0 8.494-3.045 9.662-7.421 4.996-18.724 8.653-38.05 10.869-57.443.323-2.832-.576-5.667-2.474-7.793-1.662-1.864-3.951-3.027-6.408-3.287zm-180.145 145.277c2.797-22.205 5.063-45.446 6.772-69.333h67.769c-4.79 23.959-11.161 47.204-18.997 69.333zm-164.267 0c-7.836-22.131-14.208-45.376-18.997-69.333h67.769c1.709 23.889 3.976 47.13 6.773 69.333zm75.239-34.667c0-19.115 15.551-34.667 34.667-34.667s34.667 15.552 34.667 34.667-15.552 34.667-34.667 34.667-34.667-15.551-34.667-34.667zm-180.426-54.666c-2.896-11.828-5.233-23.875-6.984-36h444.154c-1.75 12.122-4.088 24.172-6.984 36zm-.907-90.667c0-11.554.534-23.176 1.574-34.667h55.765c-.665 11.547-1.005 23.164-1.005 34.667s.341 23.119 1.005 34.667h-55.765c-1.04-11.491-1.574-23.113-1.574-34.667zm161.636-180c-2.798 22.212-5.063 45.46-6.771 69.333h-67.768c4.789-23.951 11.158-47.2 18.995-69.333zm164.271 0c7.838 22.137 14.208 45.386 18.995 69.333h-67.768c-1.709-23.878-3.974-47.126-6.771-69.333zm-75.713 0c2.843 22.169 5.157 45.41 6.894 69.333h-82.175c1.736-23.919 4.05-47.16 6.894-69.333zm-175.179 89.333c.011 0 .022.001.034.001.011 0 .022-.001.033-.001h356.011c2.896 11.828 5.234 23.878 6.984 36h-444.154c1.75-12.125 4.087-24.172 6.984-36zm280.652 90.667c0 11.503-.361 23.123-1.048 34.667h-73.993c.246-11.548.374-23.167.374-34.667s-.128-23.119-.375-34.667h73.993c.688 11.544 1.049 23.164 1.049 34.667zm-184.287 34.667c-.25-11.536-.38-23.155-.38-34.667s.13-23.131.38-34.667h89.24c.25 11.547.38 23.166.38 34.667s-.13 23.12-.38 34.667zm-93.999 0c-.687-11.544-1.048-23.164-1.048-34.667s.361-23.123 1.048-34.667h73.993c-.246 11.538-.374 23.156-.374 34.667s.128 23.129.374 34.667zm297.281 0c.665-11.547 1.005-23.164 1.005-34.667s-.341-23.119-1.005-34.667h55.764c1.039 11.49 1.574 23.112 1.574 34.667s-.535 23.177-1.574 34.667zm-9.384-145.334c-4.592-23.864-10.696-47.1-18.212-69.333h39.58c11.929 22.097 21.629 45.349 28.938 69.333zm-292.969-125.333h287.383c9.108 11.459 17.595 23.511 25.354 36h-338.092c7.759-12.489 16.246-24.541 25.355-36zm-26.955 56h39.58c-7.516 22.23-13.62 45.467-18.212 69.333h-50.308c7.309-23.983 17.011-47.236 28.94-69.333zm21.368 290.667c4.593 23.873 10.697 47.106 18.211 69.333h-39.578c-11.931-22.098-21.63-45.35-28.937-69.333zm319.924 69.333h-39.58c7.514-22.225 13.618-45.459 18.212-69.333h50.305c-7.309 23.984-17.008 47.236-28.937 69.333z" fill="#808080" data-original="#000000" style="" class=""/><path id="XMLID_1308_" d="m256 391.33c-2.63 0-5.21 1.07-7.07 2.93s-2.93 4.44-2.93 7.07c0 2.64 1.07 5.21 2.93 7.07 1.86 1.87 4.44 2.93 7.07 2.93s5.21-1.06 7.069-2.93c1.86-1.86 2.931-4.43 2.931-7.07 0-2.63-1.07-5.21-2.931-7.07-1.859-1.86-4.439-2.93-7.069-2.93z" fill="#808080" data-original="#000000" style="" class=""/><path id="XMLID_1310_" d="m256 492c-2.63 0-5.21 1.07-7.07 2.93s-2.93 4.44-2.93 7.07 1.07 5.21 2.93 7.07 4.44 2.93 7.07 2.93 5.21-1.07 7.069-2.93c1.86-1.86 2.931-4.44 2.931-7.07s-1.07-5.21-2.931-7.07c-1.859-1.86-4.439-2.93-7.069-2.93z" fill="#808080" data-original="#000000" style="" class=""/></g></g></g></svg>
