<?xml version="1.0" encoding="UTF-8" standalone="no"?>
<svg
   xmlns:dc="http://purl.org/dc/elements/1.1/"
   xmlns:cc="http://creativecommons.org/ns#"
   xmlns:rdf="http://www.w3.org/1999/02/22-rdf-syntax-ns#"
   xmlns:svg="http://www.w3.org/2000/svg"
   xmlns="http://www.w3.org/2000/svg"
   xmlns:sodipodi="http://sodipodi.sourceforge.net/DTD/sodipodi-0.dtd"
   xmlns:inkscape="http://www.inkscape.org/namespaces/inkscape"
   version="1.1"
   id="svg2"
   xml:space="preserve"
   width="294.66666"
   height="300"
   viewBox="0 0 294.66666 300"
   sodipodi:docname="sbi.eps"><metadata
     id="metadata8"><rdf:RDF><cc:Work
         rdf:about=""><dc:format>image/svg+xml</dc:format><dc:type
           rdf:resource="http://purl.org/dc/dcmitype/StillImage" /></cc:Work></rdf:RDF></metadata><defs
     id="defs6" /><sodipodi:namedview
     pagecolor="#ffffff"
     bordercolor="#666666"
     borderopacity="1"
     objecttolerance="10"
     gridtolerance="10"
     guidetolerance="10"
     inkscape:pageopacity="0"
     inkscape:pageshadow="2"
     inkscape:window-width="640"
     inkscape:window-height="480"
     id="namedview4" /><g
     id="g10"
     inkscape:groupmode="layer"
     inkscape:label="ink_ext_XXXXXX"
     transform="matrix(1.3333333,0,0,-1.3333333,0,300)"><g
       id="g12"
       transform="scale(0.1)"><path
         d="m 1106.38,2241.89 c 606.23,0 1097.86,-491.62 1097.86,-1097.85 C 2204.24,537.809 1712.61,46.1797 1106.38,46.1797 500.152,46.1797 8.52344,537.809 8.52344,1144.04 c 0,606.23 491.62856,1097.85 1097.85656,1097.85"
         style="fill:#2daae5;fill-opacity:1;fill-rule:evenodd;stroke:none"
         id="path14" /><path
         d="m 1106.38,1334.33 c 105.08,0 190.3,-85.21 190.3,-190.29 0,-105.08 -85.22,-190.298 -190.3,-190.298 -105.08,0 -190.294,85.218 -190.294,190.298 0,105.08 85.214,190.29 190.294,190.29"
         style="fill:#ffffff;fill-opacity:1;fill-rule:evenodd;stroke:none"
         id="path16" /><path
         d="m 1051.49,1019.61 h 109.78 V 9.58203 H 1051.49 V 1019.61"
         style="fill:#ffffff;fill-opacity:1;fill-rule:evenodd;stroke:none"
         id="path18" /></g></g></svg>
