<?xml version="1.0" encoding="UTF-8" standalone="no"?>
<svg
   xmlns:dc="http://purl.org/dc/elements/1.1/"
   xmlns:cc="http://creativecommons.org/ns#"
   xmlns:rdf="http://www.w3.org/1999/02/22-rdf-syntax-ns#"
   xmlns:svg="http://www.w3.org/2000/svg"
   xmlns="http://www.w3.org/2000/svg"
   xmlns:sodipodi="http://sodipodi.sourceforge.net/DTD/sodipodi-0.dtd"
   xmlns:inkscape="http://www.inkscape.org/namespaces/inkscape"
   version="1.1"
   id="svg2"
   xml:space="preserve"
   width="258.66666"
   height="258.66666"
   viewBox="0 0 258.66666 258.66666"
   sodipodi:docname="ICICI.eps"><metadata
     id="metadata8"><rdf:RDF><cc:Work
         rdf:about=""><dc:format>image/svg+xml</dc:format><dc:type
           rdf:resource="http://purl.org/dc/dcmitype/StillImage" /></cc:Work></rdf:RDF></metadata><defs
     id="defs6" /><sodipodi:namedview
     pagecolor="#ffffff"
     bordercolor="#666666"
     borderopacity="1"
     objecttolerance="10"
     gridtolerance="10"
     guidetolerance="10"
     inkscape:pageopacity="0"
     inkscape:pageshadow="2"
     inkscape:window-width="640"
     inkscape:window-height="480"
     id="namedview4" /><g
     id="g10"
     inkscape:groupmode="layer"
     inkscape:label="ink_ext_XXXXXX"
     transform="matrix(1.3333333,0,0,-1.3333333,0,258.66667)"><g
       id="g12"
       transform="scale(0.1)"><path
         d="M 2.59766,1933.23 H 1930.16 V 5.66797 H 2.59766 V 1933.23"
         style="fill:#ffffff;fill-opacity:1;fill-rule:evenodd;stroke:none"
         id="path14" /><path
         d="M 702.152,948.535 620.785,644.848 h 114.324 l 81.368,303.687 H 702.152"
         style="fill:#50595c;fill-opacity:1;fill-rule:evenodd;stroke:none"
         id="path16" /><path
         d="m 1060.07,833.246 h 105.89 c 1.98,10 2.52,22.184 1.63,36.555 -0.89,14.375 -5.81,28.121 -14.77,41.242 -8.95,13.125 -23.32,24.371 -43.11,33.746 -19.8,9.371 -47.78,14.059 -83.95,14.059 -23.19,0 -45.994,-3.203 -68.432,-9.61 C 934.891,942.836 914.145,932.914 895.09,919.48 876.039,906.043 859.141,888.859 844.402,867.926 829.66,846.992 818.398,822 810.613,792.941 c -12.726,-47.488 -7.582,-84.671 15.422,-111.539 23.008,-26.871 62.09,-40.929 117.246,-42.179 23.985,-0.938 47.176,1.718 69.569,7.968 22.4,6.247 42.96,15.153 61.69,26.711 18.72,11.563 34.9,25.075 48.53,40.539 13.62,15.465 23.48,31.95 29.57,49.446 h -111.16 c -4.78,-10 -10.23,-18.199 -16.34,-24.606 -6.1,-6.406 -12.47,-11.48 -19.09,-15.23 -6.624,-3.75 -13.288,-6.328 -19.987,-7.735 -6.696,-1.406 -12.856,-2.109 -18.477,-2.109 -14.75,0 -25.758,4.141 -33.023,12.422 -7.266,8.277 -11.594,18.668 -12.985,31.164 -1.394,12.496 -0.035,26.09 4.074,40.773 4.11,14.684 10.211,28.278 18.301,40.774 8.09,12.496 17.633,22.887 28.633,31.164 10.996,8.281 22.996,12.422 35.994,12.422 2.81,0 6.82,-0.078 12.05,-0.235 5.23,-0.156 10.54,-1.64 15.93,-4.453 5.39,-2.812 10.33,-7.656 14.81,-14.527 4.48,-6.875 7.38,-17.027 8.7,-30.465"
         style="fill:#50595c;fill-opacity:1;fill-rule:evenodd;stroke:none"
         id="path18" /><path
         d="m 1234.78,948.535 -81.37,-303.687 h 114.33 l 81.37,303.687 h -114.33"
         style="fill:#50595c;fill-opacity:1;fill-rule:evenodd;stroke:none"
         id="path20" /><path
         d="m 1592.7,833.246 h 105.89 c 1.98,10 2.52,22.184 1.63,36.555 -0.9,14.375 -5.82,28.121 -14.77,41.242 -8.95,13.125 -23.32,24.371 -43.11,33.746 -19.8,9.371 -47.78,14.059 -83.95,14.059 -23.19,0 -46,-3.203 -68.43,-9.61 -22.44,-6.402 -43.19,-16.324 -62.24,-29.758 -19.05,-13.437 -35.95,-30.621 -50.69,-51.554 -14.74,-20.934 -26,-45.926 -33.79,-74.985 -12.72,-47.488 -7.58,-84.671 15.42,-111.539 23.01,-26.871 62.09,-40.929 117.25,-42.179 23.98,-0.938 47.17,1.718 69.57,7.968 22.4,6.247 42.96,15.153 61.68,26.711 18.73,11.563 34.91,25.075 48.54,40.539 13.62,15.465 23.48,31.95 29.57,49.446 h -111.16 c -4.79,-10 -10.23,-18.199 -16.34,-24.606 -6.1,-6.406 -12.47,-11.48 -19.09,-15.23 -6.63,-3.75 -13.29,-6.328 -19.99,-7.735 -6.69,-1.406 -12.85,-2.109 -18.48,-2.109 -14.75,0 -25.75,4.141 -33.02,12.422 -7.26,8.277 -11.59,18.668 -12.99,31.164 -1.39,12.496 -0.03,26.09 4.08,40.773 4.11,14.684 10.21,28.278 18.3,40.774 8.09,12.496 17.63,22.887 28.63,31.164 11,8.281 23,12.422 35.99,12.422 2.82,0 6.83,-0.078 12.06,-0.235 5.22,-0.156 10.54,-1.64 15.93,-4.453 5.39,-2.812 10.33,-7.656 14.81,-14.527 4.48,-6.875 7.38,-17.027 8.7,-30.465"
         style="fill:#50595c;fill-opacity:1;fill-rule:evenodd;stroke:none"
         id="path22" /><path
         d="m 1767.41,948.535 -81.37,-303.687 h 114.33 l 81.36,303.687 h -114.32"
         style="fill:#50595c;fill-opacity:1;fill-rule:evenodd;stroke:none"
         id="path24" /><path
         d="m 440.355,1163.61 c 24.993,30.71 31.063,67.21 13.508,81.24 -17.554,14.03 -52.261,0.44 -77.258,-30.27 -24.992,-30.71 -31.058,-67.2 -13.503,-81.24 17.554,-14.03 52.257,-0.43 77.253,30.27 z m 55.801,-338.02 c 131.059,164.043 160.735,358.98 66.055,433.96 -94.676,74.97 -278.789,2.33 -409.848,-161.71 C 21.3008,933.797 -8.375,738.855 86.3047,663.883 c 22.2073,-17.59 49.3403,-27.051 79.5503,-29.117 25.04,9.918 42.043,36.086 47.481,50.847 5.883,15.969 61.254,167.325 68.074,241.196 5.043,54.629 -16.906,57.113 -29.418,52.109 -12.605,-5.043 -35.297,-16.809 -50.422,-17.648 -15.129,-0.844 -16.808,8.402 -8.402,19.328 8.402,10.925 126.949,123.112 170.602,117.652 33.617,-4.2 39.496,-38.65 31.933,-60.51 -7.562,-21.85 -32.777,-115.974 -42.859,-164.713 -10.086,-48.746 -21.852,-116.82 -18.489,-142.871 2.583,-20.027 10.633,-29.629 20.708,-34.519 49.386,32.156 98.093,76.136 141.093,129.953"
         style="fill:#50595c;fill-opacity:1;fill-rule:evenodd;stroke:none"
         id="path26" /><path
         d="M 722.293,963.645 640.93,659.953 h 114.32 l 81.367,303.692 H 722.293"
         style="fill:#2e3191;fill-opacity:1;fill-rule:evenodd;stroke:none"
         id="path28" /><path
         d="m 1080.21,848.352 h 105.89 c 1.98,10 2.52,22.183 1.63,36.554 -0.89,14.375 -5.81,28.121 -14.77,41.242 -8.95,13.125 -23.32,24.372 -43.11,33.747 -19.79,9.371 -47.78,14.058 -83.95,14.058 -23.18,0 -45.994,-3.203 -68.431,-9.605 -22.438,-6.407 -43.184,-16.328 -62.235,-29.762 -19.054,-13.434 -35.953,-30.617 -50.691,-51.551 -14.742,-20.933 -26.004,-45.93 -33.789,-74.988 -12.723,-47.488 -7.582,-84.668 15.422,-111.539 23.008,-26.871 62.09,-40.93 117.25,-42.18 23.98,-0.937 47.174,1.719 69.564,7.969 22.4,6.246 42.96,15.152 61.69,26.711 18.72,11.562 34.9,25.074 48.53,40.539 13.63,15.469 23.49,31.949 29.58,49.445 h -111.16 c -4.79,-10 -10.24,-18.199 -16.34,-24.605 -6.11,-6.407 -12.47,-11.481 -19.1,-15.231 -6.62,-3.75 -13.28,-6.328 -19.98,-7.734 -6.702,-1.406 -12.862,-2.109 -18.48,-2.109 -14.753,0 -25.761,4.14 -33.027,12.421 -7.262,8.278 -11.594,18.668 -12.984,31.164 -1.395,12.497 -0.035,26.09 4.074,40.774 4.109,14.683 10.211,28.277 18.301,40.773 8.09,12.496 17.633,22.887 28.633,31.168 11.003,8.278 22.993,12.418 35.993,12.418 2.81,0 6.83,-0.078 12.05,-0.234 5.23,-0.156 10.54,-1.641 15.93,-4.453 5.39,-2.813 10.33,-7.653 14.81,-14.528 4.48,-6.875 7.38,-17.027 8.7,-30.464"
         style="fill:#2e3191;fill-opacity:1;fill-rule:evenodd;stroke:none"
         id="path30" /><path
         d="m 1254.92,963.645 -81.36,-303.692 h 114.32 l 81.37,303.692 h -114.33"
         style="fill:#2e3191;fill-opacity:1;fill-rule:evenodd;stroke:none"
         id="path32" /><path
         d="m 1612.84,848.352 h 105.89 c 1.98,10 2.52,22.183 1.63,36.554 -0.89,14.375 -5.81,28.121 -14.77,41.242 -8.95,13.125 -23.32,24.372 -43.11,33.747 -19.79,9.371 -47.78,14.058 -83.95,14.058 -23.18,0 -45.99,-3.203 -68.43,-9.605 -22.44,-6.407 -43.19,-16.328 -62.24,-29.762 -19.05,-13.434 -35.95,-30.617 -50.69,-51.551 -14.74,-20.933 -26,-45.93 -33.79,-74.988 -12.72,-47.488 -7.58,-84.668 15.42,-111.539 23.01,-26.871 62.09,-40.93 117.25,-42.18 23.99,-0.937 47.18,1.719 69.57,7.969 22.4,6.246 42.96,15.152 61.68,26.711 18.73,11.562 34.91,25.074 48.54,40.539 13.62,15.469 23.48,31.949 29.57,49.445 h -111.16 c -4.78,-10 -10.23,-18.199 -16.34,-24.605 -6.1,-6.407 -12.47,-11.481 -19.09,-15.231 -6.62,-3.75 -13.28,-6.328 -19.98,-7.734 -6.7,-1.406 -12.86,-2.109 -18.48,-2.109 -14.75,0 -25.76,4.14 -33.03,12.421 -7.26,8.278 -11.59,18.668 -12.98,31.164 -1.4,12.497 -0.04,26.09 4.07,40.774 4.11,14.683 10.21,28.277 18.3,40.773 8.09,12.496 17.64,22.887 28.64,31.168 11,8.278 22.99,12.418 35.99,12.418 2.81,0 6.83,-0.078 12.05,-0.234 5.23,-0.156 10.54,-1.641 15.93,-4.453 5.39,-2.813 10.33,-7.653 14.81,-14.528 4.48,-6.875 7.38,-17.027 8.7,-30.464"
         style="fill:#2e3191;fill-opacity:1;fill-rule:evenodd;stroke:none"
         id="path34" /><path
         d="m 1787.55,963.645 -81.37,-303.692 h 114.33 l 81.37,303.692 h -114.33"
         style="fill:#2e3191;fill-opacity:1;fill-rule:evenodd;stroke:none"
         id="path36" /><path
         d="m 460.496,1178.72 c 24.996,30.71 31.067,67.2 13.512,81.23 -17.559,14.04 -52.262,0.44 -77.258,-30.27 -24.996,-30.7 -31.062,-67.2 -13.508,-81.23 17.555,-14.04 52.258,-0.44 77.254,30.27 z m 55.801,-338.025 c 131.062,164.045 160.734,358.985 66.058,433.955 -94.679,74.98 -278.792,2.33 -409.855,-161.7 C 41.4414,948.902 11.7695,753.961 106.445,678.988 128.656,661.402 155.789,651.941 186,649.871 c 25.035,9.918 42.039,36.09 47.477,50.848 5.882,15.969 61.253,167.324 68.074,241.199 5.039,54.625 -16.906,57.109 -29.414,52.105 -12.606,-5.043 -35.297,-16.808 -50.426,-17.648 -15.125,-0.844 -16.805,8.402 -8.406,19.328 8.406,10.927 126.953,123.117 170.605,117.657 33.617,-4.2 39.5,-38.66 31.938,-60.51 C 408.281,1031 383.07,936.875 372.984,888.133 362.898,839.387 351.137,771.313 354.496,745.262 c 2.582,-20.028 10.633,-29.625 20.707,-34.52 49.391,32.156 98.098,76.137 141.094,129.953"
         style="fill:#f04223;fill-opacity:1;fill-rule:evenodd;stroke:none"
         id="path38" /><path
         d="m 460.496,1178.72 c 24.996,30.71 31.067,67.2 13.512,81.23 -17.559,14.04 -52.262,0.44 -77.258,-30.27 -24.996,-30.7 -31.062,-67.2 -13.508,-81.23 17.555,-14.04 52.258,-0.44 77.254,30.27 z m 80.188,-263.13 c 108.921,137.53 125.254,300.97 36.359,363.83 -88.895,62.86 -250.23,1.96 -359.152,-135.58 -108.918,-137.53 -125.2543,-300.969 -36.36,-363.828 20.442,-14.453 44.723,-22.344 71.301,-24.285 18.609,55.058 44.223,137.472 48.719,186.191 5.039,54.625 -16.906,57.109 -29.414,52.105 -12.606,-5.043 -35.297,-16.808 -50.426,-17.648 -15.125,-0.844 -16.805,8.402 -8.406,19.328 8.406,10.927 126.953,123.117 170.605,117.657 33.617,-4.2 39.5,-38.66 31.938,-60.51 C 408.281,1031 383.07,936.875 372.984,888.133 365.523,852.07 357.148,805.441 354.652,773.066 419.387,797.754 486.52,847.195 540.684,915.59"
         style="fill:#d9202a;fill-opacity:1;fill-rule:evenodd;stroke:none"
         id="path40" /></g></g></svg>
