<?xml version="1.0" encoding="UTF-8"?>
<svg xmlns="http://www.w3.org/2000/svg" viewBox="0 0 32 32" width="32px" height="32px">
<g id="surface11598953">
<path style=" stroke:none;fill-rule:nonzero;fill:rgb(100%,63.529414%,24.705882%);fill-opacity:1;" d="M 8.871094 8 L 8.664062 8.035156 C 8.007812 8.117188 7.378906 8.363281 6.855469 8.757812 C 6.738281 8.828125 6.632812 8.921875 6.515625 9.015625 C 6.503906 8.992188 6.492188 8.96875 6.492188 8.945312 C 6.46875 8.816406 6.457031 8.679688 6.433594 8.546875 C 6.398438 8.339844 6.28125 8.234375 6.074219 8.234375 L 5.523438 8.234375 C 5.183594 8.234375 5.128906 8.304688 5.128906 8.632812 L 5.128906 18.753906 C 5.140625 18.90625 5.230469 18.988281 5.359375 19 L 6.375 19 C 6.515625 19 6.597656 18.90625 6.609375 18.753906 C 6.621094 18.707031 6.621094 18.664062 6.621094 18.613281 L 6.621094 15.097656 C 6.667969 15.144531 6.703125 15.167969 6.726562 15.191406 C 7.578125 15.902344 8.558594 16.136719 9.632812 15.925781 C 10.609375 15.726562 11.285156 15.132812 11.71875 14.257812 C 12.058594 13.59375 12.195312 12.917969 12.207031 12.183594 C 12.230469 11.375 12.160156 10.601562 11.824219 9.84375 C 11.425781 8.910156 10.75 8.292969 9.734375 8.082031 C 9.582031 8.046875 9.417969 8.035156 9.269531 8.011719 C 9.128906 8 9 8 8.871094 8 Z M 16.644531 8 C 16.59375 8.011719 16.550781 8.023438 16.503906 8.023438 C 16.035156 8.046875 15.582031 8.105469 15.128906 8.222656 C 14.835938 8.289062 14.554688 8.394531 14.277344 8.488281 C 14.101562 8.546875 14.019531 8.675781 14.019531 8.863281 C 14.03125 9.011719 14.019531 9.175781 14.019531 9.328125 C 14.03125 9.5625 14.125 9.621094 14.347656 9.5625 C 14.71875 9.46875 15.09375 9.363281 15.464844 9.296875 C 16.046875 9.191406 16.644531 9.144531 17.238281 9.226562 C 17.554688 9.28125 17.84375 9.363281 18.042969 9.632812 C 18.21875 9.855469 18.289062 10.132812 18.300781 10.414062 C 18.3125 10.8125 18.3125 11.125 18.3125 11.523438 C 18.3125 11.542969 18.3125 11.566406 18.300781 11.578125 L 18.242188 11.578125 C 17.738281 11.449219 17.226562 11.378906 16.714844 11.347656 C 16.179688 11.324219 15.640625 11.347656 15.128906 11.535156 C 14.511719 11.742188 14.007812 12.117188 13.714844 12.722656 C 13.496094 13.191406 13.460938 13.679688 13.527344 14.183594 C 13.632812 14.859375 13.960938 15.371094 14.554688 15.695312 C 15.128906 16.011719 15.734375 16.046875 16.363281 15.953125 C 17.089844 15.847656 17.730469 15.546875 18.289062 15.078125 C 18.3125 15.054688 18.335938 15.042969 18.359375 15.019531 C 18.394531 15.207031 18.417969 15.382812 18.453125 15.546875 C 18.476562 15.699219 18.570312 15.789062 18.710938 15.800781 L 19.492188 15.800781 C 19.609375 15.800781 19.714844 15.699219 19.714844 15.570312 C 19.726562 15.535156 19.726562 15.488281 19.726562 15.441406 L 19.726562 10.460938 C 19.722656 10.265625 19.710938 10.054688 19.675781 9.855469 C 19.582031 9.238281 19.324219 8.722656 18.765625 8.394531 C 18.449219 8.210938 18.101562 8.117188 17.726562 8.058594 C 17.554688 8.035156 17.390625 8.023438 17.214844 8 Z M 20.6875 8.003906 C 20.570312 8.003906 20.511719 8.105469 20.535156 8.222656 C 20.558594 8.316406 20.59375 8.421875 20.628906 8.515625 C 21.5625 10.824219 22.507812 13.132812 23.453125 15.457031 C 23.53125 15.652344 23.542969 15.816406 23.453125 16.015625 C 23.300781 16.363281 23.171875 16.726562 23.007812 17.078125 C 22.867188 17.390625 22.636719 17.625 22.285156 17.71875 C 22.050781 17.777344 21.796875 17.800781 21.550781 17.765625 C 21.433594 17.753906 21.316406 17.730469 21.199219 17.71875 C 21.035156 17.707031 20.957031 17.777344 20.941406 17.953125 L 20.941406 18.421875 C 20.957031 18.6875 21.035156 18.804688 21.304688 18.851562 C 21.5625 18.898438 21.828125 18.929688 22.109375 18.945312 C 22.925781 18.953125 23.566406 18.628906 23.988281 17.917969 C 24.164062 17.636719 24.304688 17.347656 24.429688 17.042969 C 25.5625 14.183594 26.683594 11.339844 27.800781 8.46875 C 27.835938 8.386719 27.859375 8.304688 27.871094 8.210938 C 27.894531 8.070312 27.824219 8 27.695312 8.003906 L 26.753906 8.003906 C 26.589844 7.992188 26.4375 8.097656 26.378906 8.25 C 26.359375 8.316406 26.332031 8.375 26.308594 8.445312 L 24.640625 13.21875 C 24.527344 13.554688 24.394531 13.90625 24.277344 14.277344 C 24.253906 14.21875 24.246094 14.195312 24.230469 14.160156 C 23.613281 12.457031 23.007812 10.753906 22.390625 9.054688 C 22.296875 8.773438 22.191406 8.503906 22.085938 8.234375 C 22.042969 8.105469 21.933594 8.015625 21.78125 8.015625 C 21.421875 8 21.058594 8.003906 20.6875 8.003906 Z M 8.859375 9.214844 C 9.570312 9.269531 10.152344 9.621094 10.457031 10.449219 C 10.644531 10.960938 10.691406 11.457031 10.691406 11.996094 C 10.691406 12.496094 10.65625 12.941406 10.503906 13.417969 C 10.179688 14.433594 9.429688 14.828125 8.472656 14.785156 C 7.796875 14.75 7.226562 14.488281 6.6875 14.117188 C 6.632812 14.082031 6.597656 14.027344 6.605469 13.96875 L 6.605469 10.007812 C 6.597656 9.9375 6.632812 9.878906 6.6875 9.84375 C 7.34375 9.390625 8.066406 9.15625 8.859375 9.214844 Z M 16.425781 12.363281 C 16.628906 12.347656 16.828125 12.347656 17.027344 12.375 C 17.425781 12.40625 17.820312 12.476562 18.21875 12.535156 C 18.300781 12.546875 18.324219 12.582031 18.324219 12.652344 C 18.308594 12.886719 18.324219 13.109375 18.324219 13.34375 C 18.324219 13.574219 18.3125 13.785156 18.3125 14.019531 C 18.324219 14.078125 18.289062 14.125 18.242188 14.160156 C 17.703125 14.542969 17.121094 14.800781 16.457031 14.871094 C 16.1875 14.894531 15.917969 14.894531 15.664062 14.789062 C 15.371094 14.683594 15.148438 14.4375 15.066406 14.148438 C 14.976562 13.84375 14.976562 13.527344 15.058594 13.226562 C 15.183594 12.828125 15.464844 12.609375 15.839844 12.480469 C 16.03125 12.421875 16.226562 12.378906 16.429688 12.363281 Z M 29.042969 20.003906 C 28.109375 20.015625 27.007812 20.222656 26.167969 20.8125 C 25.910156 20.988281 25.957031 21.238281 26.246094 21.203125 C 27.183594 21.09375 29.277344 20.839844 29.652344 21.316406 C 30.027344 21.792969 29.234375 23.765625 28.886719 24.648438 C 28.777344 24.910156 29.007812 25.019531 29.246094 24.820312 C 30.8125 23.511719 31.21875 20.765625 30.898438 20.367188 C 30.738281 20.171875 29.972656 19.988281 29.042969 20 Z M 1.214844 21.003906 C 1 21.03125 0.90625 21.308594 1.132812 21.527344 C 5.050781 25.203125 10.226562 27 15.972656 27 C 20.070312 27 24.832031 25.664062 28.113281 23.144531 C 28.660156 22.722656 28.195312 22.097656 27.636719 22.34375 C 23.957031 23.96875 19.957031 24.753906 16.3125 24.753906 C 10.917969 24.753906 5.695312 23.625 1.46875 21.066406 C 1.375 21.011719 1.289062 20.992188 1.214844 21.003906 Z M 1.214844 21.003906 "/>
</g>
</svg>
