<?xml version="1.0" encoding="UTF-8" standalone="no"?>
<svg
   xmlns:dc="http://purl.org/dc/elements/1.1/"
   xmlns:cc="http://creativecommons.org/ns#"
   xmlns:rdf="http://www.w3.org/1999/02/22-rdf-syntax-ns#"
   xmlns:svg="http://www.w3.org/2000/svg"
   xmlns="http://www.w3.org/2000/svg"
   xmlns:sodipodi="http://sodipodi.sourceforge.net/DTD/sodipodi-0.dtd"
   xmlns:inkscape="http://www.inkscape.org/namespaces/inkscape"
   version="1.1"
   id="svg2"
   xml:space="preserve"
   width="1024"
   height="307.85333"
   viewBox="0 0 1024 307.85333"
   sodipodi:docname="kotak-mahindra-bank-seeklogo.com.eps"><metadata
     id="metadata8"><rdf:RDF><cc:Work
         rdf:about=""><dc:format>image/svg+xml</dc:format><dc:type
           rdf:resource="http://purl.org/dc/dcmitype/StillImage" /></cc:Work></rdf:RDF></metadata><defs
     id="defs6" /><sodipodi:namedview
     pagecolor="#ffffff"
     bordercolor="#666666"
     borderopacity="1"
     objecttolerance="10"
     gridtolerance="10"
     guidetolerance="10"
     inkscape:pageopacity="0"
     inkscape:pageshadow="2"
     inkscape:window-width="640"
     inkscape:window-height="480"
     id="namedview4" /><g
     id="g10"
     inkscape:groupmode="layer"
     inkscape:label="ink_ext_XXXXXX"
     transform="matrix(1.3333333,0,0,-1.3333333,0,307.85333)"><g
       id="g12"
       transform="scale(0.1)"><path
         d="m 0,1154.46 c 0,637.55 600.934,1154.46 1342.33,1154.46 741.31,0 1342.25,-516.91 1342.25,-1154.46 C 2684.58,516.828 2083.64,0 1342.33,0 600.934,0 0,516.828 0,1154.46"
         style="fill:#234075;fill-opacity:1;fill-rule:nonzero;stroke:none"
         id="path14" /><path
         d="m 1179.33,1938.14 311.85,103.05 1.52,-1685.838 -314.5,-105.372 1.13,1688.16"
         style="fill:#ee2432;fill-opacity:1;fill-rule:nonzero;stroke:none"
         id="path16" /><path
         d="m 4423.27,706.691 c -144.54,0 -203.7,120.321 -203.7,254.618 0,136.071 59.16,256.221 203.7,256.221 144.7,0 203.85,-120.15 203.85,-256.221 0,-134.297 -59.15,-254.618 -203.85,-254.618 m 0,-219.601 c 299.71,0 527.94,174.281 527.94,474.219 0,301.551 -228.23,475.911 -527.94,475.911 -299.55,0 -527.79,-174.36 -527.79,-475.911 0,-299.938 228.24,-474.219 527.79,-474.219"
         style="fill:#ee2432;fill-opacity:1;fill-rule:nonzero;stroke:none"
         id="path18" /><path
         d="M 4922.43,1196.67 H 5101.9 V 827.012 c 0,-216.09 67.95,-339.922 348.31,-339.922 78.43,0 137.75,10.469 196.91,17.43 l -10.47,203.929 c -31.34,-5.187 -64.43,-12.148 -95.77,-12.148 -99.3,0 -125.52,55.801 -125.52,165.648 v 334.721 h 219.53 v 219.68 h -219.53 l -0.08,314.1 -308.18,-110.08 v -204.02 h -184.67 v -219.68"
         style="fill:#ee2432;fill-opacity:1;fill-rule:nonzero;stroke:none"
         id="path20" /><path
         d="m 6732.28,507.949 h 313.61 v 449.77 h 3.44 l 250.94,-449.77 H 7680 l -341.51,491.653 315.29,416.668 h -343.12 l -261.33,-381.81 h -3.44 v 694.79 L 6732.28,1620.53 V 507.949"
         style="fill:#ee2432;fill-opacity:1;fill-rule:nonzero;stroke:none"
         id="path22" /><path
         d="m 3060.47,507.949 h 313.7 v 449.77 h 3.44 l 250.94,-449.77 h 379.73 l -341.52,491.653 315.3,416.668 h -343.12 l -261.33,-381.81 h -3.44 v 694.79 L 3060.47,1625.8 V 507.949"
         style="fill:#ee2432;fill-opacity:1;fill-rule:nonzero;stroke:none"
         id="path24" /><path
         d="m 5980.88,794.789 c 0,88.262 84.66,121.762 192.19,121.762 47.64,0 93.53,-3.52 133.98,-5.281 0,-107.68 -75.79,-216.969 -195.62,-216.969 -74.11,0 -130.55,37.019 -130.55,100.488 m 640.11,-291.07 c -14.15,72.269 -17.67,144.621 -17.67,217.051 V 1063 c 0,280.61 -202.81,381.18 -437.29,381.18 -135.75,0 -253.9,-19.35 -366.7,-65.32 l 5.36,-215.21 c 88.02,49.33 190.34,68.84 292.59,68.84 114.63,0 208.01,-33.58 209.77,-158.85 -40.45,7.03 -96.89,12.31 -148.06,12.31 -169.23,0 -474.21,-33.58 -474.21,-314.098 0,-199.372 162.19,-289.321 343.75,-289.321 130.46,0 218.56,51.168 290.91,165.809 h 3.52 c 0,-47.649 5.27,-95.301 7.03,-144.621 h 291"
         style="fill:#ee2432;fill-opacity:1;fill-rule:nonzero;stroke:none"
         id="path26" /><path
         d="M 1364.39,886.809 C 1228.89,723.48 1097.94,556.648 852.598,556.648 c -346.551,0 -510.918,335.032 -510.918,615.162 0,269.17 128.465,587.74 466.07,587.74 146.453,0 287.4,-89.53 371.42,-184.27 l -0.24,-228.48 c -70.19,47.25 -227.442,93.61 -330.09,95.29 -214.09,3.61 -402.832,-89.21 -399.559,-300.5 2.242,-145.5 146.379,-244.391 289.797,-244.391 219.684,0 352.712,200.661 463.912,352.951 31.1,39.81 118.55,156.77 132.22,175.55 123.52,172.6 266.46,330.17 511.8,330.17 289,0 451.28,-232.96 497.17,-472.78 h -130.31 c -52.44,77.78 -153.41,125.35 -252.86,125.35 -227.04,0 -362.78,-208.89 -476.3,-362.7 0,0 -88.34,-120.4 -120.32,-158.931 m 987.38,151.411 C 2322.51,797.031 2187.25,553.441 1891.86,552.961 1719.42,552.641 1584.72,670.719 1491.43,815.18 V 982.5 c 116.71,-57.961 225.84,-120.148 358.22,-122.078 163.08,-2.391 310.5,60.289 371.5,177.798 h 130.62"
         style="fill:#ffffff;fill-opacity:1;fill-rule:nonzero;stroke:none"
         id="path28" /><path
         d="m 3819.27,503.621 h -190.09 l -124.31,223.277 -124.31,223.293 -3.07,-223.293 -3.06,-223.277 h -158.15 -158.15 l 2.34,448.91 V 507.949 h 313.7 v 449.77 h 3.44 l 250.94,-449.77 h 353.95 c -24.24,-3.238 -74.09,-4.328 -163.23,-4.328 m 159.31,47.098 -311.82,448.883 259.17,342.488 c -27.47,-37.49 -64.46,-86.97 -104.99,-140.28 L 3667.77,1000.4 3830.03,766.141 c 62.37,-90.02 118.68,-171.719 148.55,-215.422 m -600.97,483.741 h -3.44 v 550.45 c 1.51,-56.74 2.73,-126.74 3.39,-202.27 l 2.99,-342 129.18,189.37 129.18,189.37 h 167.6 c 53.4,0 101.18,-1.22 131.93,-3.11 h -299.5 l -261.33,-381.81 m -313.62,592.5 v 0.97 l 146.98,48.27 c 36.62,12.03 71,23.08 98.07,31.57 l -245.05,-80.81"
         style="fill:#ffffff;fill-opacity:1;fill-rule:nonzero;stroke:none"
         id="path30" /><path
         d="m 3982.5,507.949 h -353.95 l -250.94,449.77 h -3.44 v -449.77 h -313.7 v 444.582 l 0.59,113.239 v 0.01 l 2.93,561.18 245.05,80.81 c 32.68,10.25 54.71,16.77 57.22,16.79 v 0 c 2.73,0 5.65,-55.1 7.91,-139.65 v -550.45 h 3.44 l 261.33,381.81 h 299.5 c 22.32,-1.37 35.66,-3.1 35.66,-4.97 0,-2.3 -18.55,-28.78 -48.17,-69.21 L 3666.76,999.602 3978.58,550.719 c 12.88,-18.848 20.84,-30.629 22.25,-32.969 2.69,-4.461 -2.03,-7.609 -18.33,-9.801"
         style="fill:#ee2432;fill-opacity:1;fill-rule:nonzero;stroke:none"
         id="path32" /></g></g></svg>
