<?xml version="1.0" encoding="UTF-8" standalone="no"?>
<svg
   xmlns:dc="http://purl.org/dc/elements/1.1/"
   xmlns:cc="http://creativecommons.org/ns#"
   xmlns:rdf="http://www.w3.org/1999/02/22-rdf-syntax-ns#"
   xmlns:svg="http://www.w3.org/2000/svg"
   xmlns="http://www.w3.org/2000/svg"
   xmlns:sodipodi="http://sodipodi.sourceforge.net/DTD/sodipodi-0.dtd"
   xmlns:inkscape="http://www.inkscape.org/namespaces/inkscape"
   version="1.1"
   id="svg2"
   xml:space="preserve"
   width="652.37335"
   height="230.52"
   viewBox="0 0 652.37335 230.52"
   sodipodi:docname="unified-payment-interface-upi-seeklogo.com.eps"><metadata
     id="metadata8"><rdf:RDF><cc:Work
         rdf:about=""><dc:format>image/svg+xml</dc:format><dc:type
           rdf:resource="http://purl.org/dc/dcmitype/StillImage" /></cc:Work></rdf:RDF></metadata><defs
     id="defs6" /><sodipodi:namedview
     pagecolor="#ffffff"
     bordercolor="#666666"
     borderopacity="1"
     objecttolerance="10"
     gridtolerance="10"
     guidetolerance="10"
     inkscape:pageopacity="0"
     inkscape:pageshadow="2"
     inkscape:window-width="640"
     inkscape:window-height="480"
     id="namedview4" /><g
     id="g10"
     inkscape:groupmode="layer"
     inkscape:label="ink_ext_XXXXXX"
     transform="matrix(1.3333333,0,0,-1.3333333,0,230.52)"><g
       id="g12"
       transform="scale(0.1)"><path
         d="M 39.2461,244.16 H 75.875 L 41.5742,101.738 C 36.3438,80.8008 37.5039,64.5313 44.4766,54.0586 51.457,43.5898 64.2422,38.3594 83.4258,38.3594 c 18.6052,0 34.3042,5.2304 46.5122,15.6992 12.207,10.4727 20.343,26.7422 25.574,47.6794 l 34.301,142.422 h 37.203 L 192.141,98.2383 C 184.578,66.8516 171.211,43.0117 151.445,27.3203 132.262,11.6211 106.68,3.46875 75.2891,3.46875 43.8984,3.46875 22.3867,11.0313 10.7617,26.7383 -0.863281,42.4414 -3.1875,66.2695 4.37109,97.6484 L 39.2461,244.16"
         style="fill:#383736;fill-opacity:1;fill-rule:nonzero;stroke:none"
         id="path14" /><path
         d="m 221.785,9.87891 58.133,243.57009 110.453,-143 c 2.906,-4.07 5.813,-8.148 8.723,-12.8006 2.902,-4.6367 5.808,-9.8789 9.301,-15.6796 L 447.34,244.16 h 34.301 L 423.508,1.14844 310.727,147.07 c -2.907,4.078 -5.809,8.141 -8.719,12.211 -2.906,4.641 -5.231,8.731 -6.973,13.957 L 256.086,10.4688 H 221.785 V 9.87891"
         style="fill:#383736;fill-opacity:1;fill-rule:nonzero;stroke:none"
         id="path16" /><path
         d="M 478.73,9.87891 534.543,244.16 h 37.199 L 515.938,9.87891 H 478.73"
         style="fill:#383736;fill-opacity:1;fill-rule:nonzero;stroke:none"
         id="path18" /><path
         d="M 568.84,9.87891 624.645,244.16 h 127.312 l -7.559,-32.558 h -90.105 l -13.949,-58.133 h 90.105 l -8.14,-33.141 H 632.203 L 606.047,10.4688 H 568.84 V 9.87891"
         style="fill:#383736;fill-opacity:1;fill-rule:nonzero;stroke:none"
         id="path20" /><path
         d="M 737.422,9.87891 793.23,244.16 h 37.204 L 774.629,9.87891 h -37.207"
         style="fill:#383736;fill-opacity:1;fill-rule:nonzero;stroke:none"
         id="path22" /><path
         d="M 827.527,9.87891 883.336,244.16 h 127.314 l -7.56,-32.558 h -90.106 l -13.953,-58.711 h 90.11 L 981,119.738 H 890.895 L 872.871,44.1797 H 962.98 L 954.84,9.87891 H 827.527 v 0"
         style="fill:#383736;fill-opacity:1;fill-rule:nonzero;stroke:none"
         id="path24" /><path
         d="m 1043.2,44.7617 h 31.39 c 16.86,0 30.23,1.1602 39.54,3.4766 9.3,2.3203 17.43,6.4101 24.99,11.6406 10.46,7.5625 19.19,16.8594 26.16,28.4805 6.98,11.0508 12.21,24.4106 15.7,39.5316 3.48,15.121 4.65,27.91 2.9,38.937 -1.74,11.063 -5.81,20.942 -12.79,28.5 -5.23,5.801 -11.62,9.301 -20.34,11.621 -8.72,2.332 -22.09,3.481 -41.28,3.481 h -13.37 -13.37 z M 997.855,9.87891 1053.67,244.16 h 49.99 c 32.56,0 55.23,-1.742 67.43,-5.238 12.21,-3.492 22.67,-8.731 30.81,-16.852 10.47,-10.468 17.45,-23.851 20.35,-39.531 2.91,-16.289 1.74,-34.891 -2.9,-55.238 -5.24,-20.922 -12.79,-38.9416 -23.26,-55.2112 -10.46,-16.289 -23.83,-29.0781 -39.53,-39.5312 -11.62,-8.1484 -24.42,-13.3789 -38.37,-16.8594 -13.37,-3.5 -33.71,-5.2304 -60.46,-5.2304 h -9.88 -49.995 V 9.87891"
         style="fill:#383736;fill-opacity:1;fill-rule:nonzero;stroke:none"
         id="path26" /><path
         d="m 1400.14,146.48 h 9.3 c 20.35,0 34.88,2.329 43.02,6.989 8.14,4.652 13.37,12.781 16.28,24.422 2.9,12.211 1.16,21.5 -4.66,26.148 -6.39,5.242 -19.18,7.563 -38.36,7.563 h -9.3 z m -9.89,-31.378 -24.99,-105.22309 h -34.88 L 1386.19,244.16 h 56.38 c 16.86,0 28.49,-1.172 36.05,-2.91 7.56,-1.738 13.37,-4.648 18.02,-9.301 5.81,-5.23 9.88,-12.789 11.63,-22.09 1.74,-9.32 1.16,-19.179 -1.17,-30.23 -2.91,-11.059 -6.97,-21.508 -13.37,-30.82 -6.39,-9.297 -13.95,-16.86 -22.09,-22.09 -6.97,-4.071 -14.53,-7.539 -22.67,-9.301 -8.14,-1.738 -20.93,-2.906 -37.21,-2.906 h -7.55 -13.96 v 0.59"
         style="fill:#383736;fill-opacity:1;fill-rule:nonzero;stroke:none"
         id="path28" /><path
         d="m 1553.03,102.301 h 63.36 l -10.46,53.5 c -0.58,3.48 -1.16,7.558 -1.16,11.617 -0.59,4.652 -0.59,9.301 -0.59,14.531 -2.32,-5.23 -4.65,-9.879 -7.55,-14.531 -2.33,-4.648 -4.65,-8.727 -6.98,-12.207 z m 80.22,-92.42209 -11.62,60.44919 h -90.69 l -40.7,-60.44919 h -38.95 L 1619.88,253.449 1672.2,9.87891 h -38.95"
         style="fill:#383736;fill-opacity:1;fill-rule:nonzero;stroke:none"
         id="path30" /><path
         d="m 1725.68,9.87891 25.58,106.94909 -46.5,126.742 h 38.94 l 29.07,-79.648 c 0.58,-2.32 1.16,-4.641 2.32,-8.121 1.17,-3.5 1.75,-6.992 2.91,-10.473 2.33,3.481 4.65,6.973 6.98,10.473 2.32,3.48 4.65,6.39 6.97,9.301 l 68.02,78.468 h 37.2 L 1788.47,117.418 1762.89,10.4688 h -37.21 V 9.87891"
         style="fill:#383736;fill-opacity:1;fill-rule:nonzero;stroke:none"
         id="path32" /><path
         d="m 2079.71,125.559 c 0,1.742 0.58,6.98 1.75,15.121 0.58,6.968 1.16,12.211 1.74,16.859 -2.33,-5.238 -4.65,-10.469 -7.56,-16.269 -2.91,-5.239 -6.39,-11.059 -10.46,-16.29 L 1975.65,0 1946.59,127.301 c -1.17,5.238 -2.33,10.469 -2.91,15.117 -0.58,4.652 -1.16,9.883 -1.16,14.531 -1.17,-4.648 -2.91,-9.879 -4.65,-15.679 -1.75,-5.239 -4.07,-11.059 -6.98,-16.879 L 1878.57,9.28906 h -34.3 l 112.2,244.15994 31.97,-147.648 c 0.58,-2.332 1.16,-6.3908 1.75,-11.6213 0.58,-5.2383 1.74,-12.2109 2.9,-20.3516 4.07,6.9727 9.3,15.1133 16.28,25.5821 1.74,2.8908 3.49,4.6488 4.07,6.3908 L 2114.59,253.449 2111.1,9.28906 h -34.3 l 2.91,116.26994"
         style="fill:#383736;fill-opacity:1;fill-rule:nonzero;stroke:none"
         id="path34" /><path
         d="M 2141.33,9.87891 2197.14,244.16 h 127.31 l -7.56,-32.558 h -90.1 l -13.95,-58.711 h 90.1 l -8.14,-33.153 h -90.1 l -18.03,-75.5583 h 90.11 l -8.14,-34.30079 h -127.31 v 0"
         style="fill:#383736;fill-opacity:1;fill-rule:nonzero;stroke:none"
         id="path36" /><path
         d="m 2311.08,9.87891 58.13,243.57009 110.46,-143 c 2.91,-4.07 5.82,-8.148 8.73,-12.8006 2.89,-4.6367 5.8,-9.8789 9.3,-15.6796 l 38.94,162.1912 h 34.3 L 2512.81,1.14844 2400.02,147.07 c -2.91,4.078 -5.81,8.141 -8.72,12.211 -2.9,4.641 -5.23,8.731 -6.97,13.957 L 2345.38,10.4688 h -34.3 V 9.87891"
         style="fill:#383736;fill-opacity:1;fill-rule:nonzero;stroke:none"
         id="path38" /><path
         d="M 2689.53,212.191 2641.27,10.4688 h -37.19 l 48.24,201.7222 h -60.44 l 7.53,32.547 h 158.13 l -7.56,-32.547 h -60.45"
         style="fill:#383736;fill-opacity:1;fill-rule:nonzero;stroke:none"
         id="path40" /><path
         d="m 2728.48,56.9688 33.14,13.9531 c 0.57,-10.4727 3.48,-18.6016 9.88,-23.8321 6.39,-5.2382 15.1,-8.1484 26.74,-8.1484 11.04,0 20.35,2.9102 28.48,9.2969 8.14,6.4101 13.38,14.5312 15.7,25 3.48,13.9609 -4.65,26.1719 -24.41,36.6207 -2.91,1.762 -4.65,2.911 -6.41,3.5 -22.09,12.789 -36.03,23.832 -41.85,34.289 -5.8,10.473 -6.98,22.68 -3.48,37.211 4.65,19.18 14.53,34.301 30.21,46.512 15.71,11.617 33.15,18.02 54.09,18.02 16.85,0 30.21,-3.493 40.09,-9.879 9.89,-6.41 15.12,-16.293 16.86,-28.5 l -32.54,-15.114 c -2.91,7.551 -6.41,12.793 -11.05,16.293 -4.65,3.469 -10.47,5.227 -17.45,5.227 -9.88,0 -18.59,-2.906 -25.56,-8.137 -6.99,-5.242 -11.64,-12.211 -13.97,-21.511 -3.47,-13.961 6.41,-27.321 29.07,-39.532 1.75,-1.168 2.91,-1.758 4.08,-2.316 19.76,-10.473 33.12,-20.942 38.94,-31.41 5.82,-10.453 6.98,-22.6604 3.5,-38.3636 -5.24,-22.0898 -16.29,-39.5273 -33.15,-52.9101 -16.85,-12.7695 -36.62,-19.76955 -59.88,-19.76955 -19.18,0 -34.3,4.67188 -44.76,13.97265 -11.62,9.2969 -16.86,22.6797 -16.27,39.5274"
         style="fill:#383736;fill-opacity:1;fill-rule:nonzero;stroke:none"
         id="path42" /><path
         d="m 3002.29,9.87891 55.8,234.28109 h 37.2 L 3039.49,9.87891 h -37.2"
         style="fill:#383736;fill-opacity:1;fill-rule:nonzero;stroke:none"
         id="path44" /><path
         d="m 3092.97,9.87891 58.14,243.57009 110.45,-143 c 2.91,-4.07 5.8,-8.148 8.71,-12.8006 2.91,-4.6367 5.82,-9.8789 9.3,-15.6796 l 38.97,162.1912 h 34.29 L 3294.69,1.14844 3181.91,147.07 c -2.91,4.078 -5.82,8.141 -8.71,12.211 -2.91,4.641 -5.23,8.731 -6.99,13.957 L 3127.27,10.4688 h -34.3 V 9.87891"
         style="fill:#383736;fill-opacity:1;fill-rule:nonzero;stroke:none"
         id="path46" /><path
         d="M 3471.41,212.191 3423.16,10.4688 h -37.2 l 48.26,201.7222 h -60.47 l 7.56,32.547 h 158.12 l -7.55,-32.547 h -60.47"
         style="fill:#383736;fill-opacity:1;fill-rule:nonzero;stroke:none"
         id="path48" /><path
         d="M 3511.52,9.87891 3567.34,244.16 h 127.89 l -7.55,-32.558 h -90.12 l -13.95,-58.711 h 90.1 l -8.12,-33.153 h -90.12 l -18.01,-75.5583 h 90.1 l -8.15,-34.30079 h -127.89 v 0"
         style="fill:#383736;fill-opacity:1;fill-rule:nonzero;stroke:none"
         id="path50" /><path
         d="m 3750.45,144.738 h 6.97 c 19.77,0 33.15,2.332 40.71,6.981 7.55,4.652 12.79,12.793 15.7,25 2.89,12.793 1.74,22.09 -4.08,27.32 -5.8,5.242 -18.03,8.152 -36.62,8.152 h -6.98 z m -9.3,-29.636 -25,-104.6332 h -34.88 l 55.82,234.2692 h 51.74 c 15.12,0 26.74,-1.168 34.3,-2.91 8.12,-1.75 14.53,-5.226 19.17,-9.879 5.83,-5.82 9.3,-12.789 11.04,-22.09 1.76,-8.73 1.17,-18.609 -1.15,-29.648 -4.65,-18.609 -12.21,-33.731 -23.83,-44.18 -11.64,-10.472 -26.17,-16.851 -43.61,-19.203 l 52.91,-106.3592 h -41.86 l -50.59,104.6332 h -4.06"
         style="fill:#383736;fill-opacity:1;fill-rule:nonzero;stroke:none"
         id="path52" /><path
         d="m 3860.33,9.87891 55.8,234.28109 h 127.31 l -7.56,-32.558 h -90.1 l -13.94,-58.133 h 90.09 l -8.14,-33.141 h -90.1 L 3897.54,10.4688 h -37.21 V 9.87891"
         style="fill:#383736;fill-opacity:1;fill-rule:nonzero;stroke:none"
         id="path54" /><path
         d="m 4086.46,102.301 h 63.36 l -10.46,53.5 c -0.57,3.48 -1.16,7.558 -1.16,11.617 -0.58,4.652 -0.58,9.301 -0.58,14.531 -2.33,-5.23 -4.65,-9.879 -7.56,-14.531 -2.33,-4.648 -4.65,-8.727 -6.97,-12.207 z m 80.81,-92.42209 -11.63,60.44919 h -90.68 l -40.7,-60.44919 h -38.95 L 4153.89,253.449 4206.21,9.87891 h -38.94"
         style="fill:#383736;fill-opacity:1;fill-rule:nonzero;stroke:none"
         id="path56" /><path
         d="m 4448.05,187.191 c -8.15,9.289 -18.03,16.258 -28.48,20.348 -10.47,4.652 -22.09,6.973 -35.47,6.973 -25,0 -47.09,-8.141 -66.85,-24.41 -19.77,-16.293 -32.56,-37.801 -38.95,-63.954 -5.82,-25 -3.5,-45.9371 8.15,-62.7886 11.03,-16.2696 28.47,-24.418 51.73,-24.418 13.36,0 26.74,2.3281 40.1,7.5586 13.38,4.6484 26.76,12.2109 40.7,22.0898 l -10.46,-43.0117 c -11.63,-7.5468 -23.83,-12.789 -36.63,-16.28904 -12.79,-3.46875 -25.58,-5.23047 -39.53,-5.23047 -17.44,0 -33.14,2.91016 -46.5,8.73051 -13.38,5.8007 -24.41,14.5312 -33.15,26.1523 -8.71,11.0586 -13.94,24.418 -16.26,39.5274 -2.33,15.121 -1.74,31.3902 2.91,48.8322 4.06,17.437 11.03,33.148 20.35,48.258 9.29,15.121 21.5,28.48 35.45,39.543 13.94,11.617 29.06,20.328 45.35,26.148 16.27,5.82 32.54,8.711 49.41,8.711 13.36,0 25.57,-1.742 37.21,-5.801 11.03,-4.082 21.5,-9.879 30.8,-18.031 l -9.88,-38.938"
         style="fill:#383736;fill-opacity:1;fill-rule:nonzero;stroke:none"
         id="path58" /><path
         d="m 4451.54,9.87891 55.8,234.28109 h 127.31 l -7.56,-32.558 h -90.1 l -13.94,-58.711 h 90.09 L 4605,119.738 h -90.1 l -18.02,-75.5583 h 90.11 l -8.14,-34.30079 h -127.31"
         style="fill:#383736;fill-opacity:1;fill-rule:nonzero;stroke:none"
         id="path60" /><path
         d="m 3774.86,448.199 h -255.19 l 354.61,1280.671 h 255.19 L 3774.86,448.199"
         style="fill:#696a69;fill-opacity:1;fill-rule:nonzero;stroke:none"
         id="path62" /><path
         d="m 3642.32,1688.75 c -17.44,24.43 -44.76,36.63 -81.97,36.63 H 2158.19 l -69.18,-251.13 h 255.2 v 0 h 1020.24 l -74.41,-268 H 2269.8 v 0.59 H 2014.6 L 1803,442.379 h 255.2 l 141.84,512.742 h 1146.97 c 36.04,0 69.77,12.207 101.15,36.621 31.39,24.418 52.33,54.648 62.21,90.688 l 141.84,512.73 c 11.05,38.37 7.56,69.18 -9.89,93.59"
         style="fill:#696a69;fill-opacity:1;fill-rule:nonzero;stroke:none"
         id="path64" /><path
         d="m 1654.18,528.422 c -13.96,-50.57 -60.46,-86.043 -112.78,-86.043 H 225.855 c -36.042,0 -62.785,12.211 -80.226,36.621 -17.438,24.441 -21.508,54.648 -11.043,90.699 L 455.48,1725.38 H 710.684 L 424.086,692.949 H 1444.9 L 1731.49,1725.38 H 1986.7 L 1654.18,528.422"
         style="fill:#696a69;fill-opacity:1;fill-rule:nonzero;stroke:none"
         id="path66" /><path
         d="M 4570.12,1726.55 4892.77,1084.76 4214.36,442.969 Z"
         style="fill:#26803b;fill-opacity:1;fill-rule:nonzero;stroke:none"
         id="path68" /><path
         d="m 4343.42,1726.55 322.63,-641.79 -679,-641.791 z"
         style="fill:#e9651c;fill-opacity:1;fill-rule:nonzero;stroke:none"
         id="path70" /></g></g></svg>
