<?xml version="1.0" encoding="UTF-8" standalone="no"?>
<svg
   xmlns:dc="http://purl.org/dc/elements/1.1/"
   xmlns:cc="http://creativecommons.org/ns#"
   xmlns:rdf="http://www.w3.org/1999/02/22-rdf-syntax-ns#"
   xmlns:svg="http://www.w3.org/2000/svg"
   xmlns="http://www.w3.org/2000/svg"
   xmlns:sodipodi="http://sodipodi.sourceforge.net/DTD/sodipodi-0.dtd"
   xmlns:inkscape="http://www.inkscape.org/namespaces/inkscape"
   version="1.1"
   id="svg2"
   xml:space="preserve"
   width="1821.3333"
   height="1024"
   viewBox="0 0 1821.3333 1024"
   sodipodi:docname="phone-pe-2020-seeklogo.com.ai"><metadata
     id="metadata8"><rdf:RDF><cc:Work
         rdf:about=""><dc:format>image/svg+xml</dc:format><dc:type
           rdf:resource="http://purl.org/dc/dcmitype/StillImage" /></cc:Work></rdf:RDF></metadata><defs
     id="defs6"><clipPath
       clipPathUnits="userSpaceOnUse"
       id="clipPath18"><path
         d="M 0,768 H 1366 V 0 H 0 Z"
         id="path16" /></clipPath></defs><sodipodi:namedview
     pagecolor="#ffffff"
     bordercolor="#666666"
     borderopacity="1"
     objecttolerance="10"
     gridtolerance="10"
     guidetolerance="10"
     inkscape:pageopacity="0"
     inkscape:pageshadow="2"
     inkscape:window-width="640"
     inkscape:window-height="480"
     id="namedview4" /><g
     id="g10"
     inkscape:groupmode="layer"
     inkscape:label="phone-pe-2020-seeklogo.com"
     transform="matrix(1.3333333,0,0,-1.3333333,0,1024)"><g
       id="g12"><g
         id="g14"
         clip-path="url(#clipPath18)"><g
           id="g20"
           transform="translate(308.8496,424.8745)"><path
             d="m 0,0 c -10.426,0 -20.853,0.013 -31.279,-0.009 -2.784,-0.005 -3.775,-0.836 -3.982,-3.578 -0.201,-2.659 -0.263,-5.336 0.151,-7.996 0.74,-4.753 4.352,-7.959 9.182,-8.063 2.4,-0.052 4.802,-0.011 7.202,-0.017 2.987,-0.007 3.004,-0.015 3.007,-2.95 0.009,-11.168 0.02,-22.336 0.011,-33.504 -0.003,-4.478 0.567,-8.881 1.725,-13.2 3.21,-11.966 10.211,-20.592 22.363,-24.167 10.155,-2.988 20.34,-2.273 30.357,1.026 2.354,0.776 2.398,0.775 2.402,-1.719 0.011,-6.92 -0.05,-13.841 0.026,-20.76 0.07,-6.423 4.844,-11.138 11.247,-11.218 3.292,-0.041 6.586,-0.055 9.877,0.017 2.529,0.055 4.178,1.775 4.29,4.303 0.035,0.82 0.016,1.643 0.016,2.465 0.001,32.271 0,64.54 0.001,96.81 10e-4,3.675 0.004,3.677 3.583,3.679 4.184,0.002 8.368,-0.019 12.552,0.009 3.098,0.021 3.998,0.951 4.033,4.097 0.022,2.055 0.025,4.111 -0.002,6.166 -0.075,5.6 -3.828,9.334 -9.479,9.381 C 72.344,0.813 67.405,0.818 62.467,0.764 61.044,0.749 59.979,1.186 59.065,2.275 57.214,4.479 55.291,6.621 53.396,8.787 42.573,21.168 31.73,33.533 20.937,45.941 18.11,49.191 14.657,50.998 10.342,50.94 3.675,50.853 -2.253,47.892 -8.402,45.863 -10.265,45.248 -10.47,42.906 -9.156,41.364 -8.713,40.845 -8.198,40.385 -7.701,39.913 5.577,27.32 18.858,14.731 32.128,2.13 32.607,1.675 33.49,1.244 33.273,0.557 32.991,-0.34 31.978,0.022 31.278,0.021 20.852,-0.002 10.426,0.005 0,0 m 23.779,-171.055 c -3.879,0.377 -7.774,0.636 -11.635,1.149 -25.264,3.356 -47.761,13.076 -67.188,29.602 -20.664,17.577 -34.417,39.58 -41.433,65.748 -3.739,13.947 -4.957,28.147 -3.786,42.554 2.026,24.949 10.329,47.605 25.501,67.509 21.245,27.873 49.329,44.898 84.038,50.053 37.841,5.621 71.97,-3.925 101.517,-28.131 25.429,-20.832 40.763,-47.942 45.429,-80.468 5.502,-38.347 -4.364,-72.784 -29.383,-102.433 -21.064,-24.963 -48.241,-39.428 -80.526,-44.307 -4.053,-0.612 -8.16,-0.86 -12.242,-1.276 z"
             style="fill:#5f259f;fill-opacity:1;fill-rule:nonzero;stroke:none"
             id="path22" /></g><g
           id="g24"
           transform="translate(1121.4971,353.4082)"><path
             d="m 0,0 c 3.84,0 7.68,0.032 11.52,-0.018 1.391,-0.017 2.015,0.499 1.977,1.918 -0.059,2.191 0.018,4.385 -0.058,6.575 -0.242,7.013 -4.208,11.664 -11.185,12.557 -8.84,1.132 -15.34,-3.418 -15.521,-12.79 -0.038,-1.985 0.072,-3.977 -0.053,-5.956 -0.117,-1.852 0.674,-2.366 2.419,-2.319 C -7.27,0.065 -3.634,-0.003 0,0 m 36.925,-12.418 c -1.387,-2.265 -3.362,-3.067 -6.048,-3.048 -13.651,0.101 -27.305,0.008 -40.957,0.089 -2.001,0.012 -2.899,-0.464 -2.812,-2.592 0.065,-1.558 -0.347,-3.131 -0.369,-4.7 -0.103,-7.548 4.754,-12.61 12.339,-13.157 7.709,-0.556 14.778,1.542 21.653,4.733 4.907,2.278 5.886,1.963 8.889,-2.596 2.144,-3.255 4.029,-6.58 2.526,-10.733 -0.907,-2.501 -2.434,-4.451 -4.773,-5.689 -10.452,-5.531 -21.642,-7.138 -33.303,-6.115 -5.515,0.484 -10.824,1.783 -15.77,4.33 -11.568,5.957 -17.361,15.756 -17.908,28.447 -0.458,10.601 -0.235,21.241 -0.061,31.86 0.296,18.127 12.627,31.346 31.034,33.506 6.576,0.771 13.139,0.813 19.637,-0.668 14.659,-3.345 23.452,-12.926 25.572,-27.813 0.077,-0.538 0.233,-1.063 0.351,-1.594 z"
             style="fill:#5f259f;fill-opacity:1;fill-rule:nonzero;stroke:none"
             id="path26" /></g><g
           id="g28"
           transform="translate(551.728,381.293)"><path
             d="m 0,0 c 0,-7.118 0.062,-14.237 -0.042,-21.354 -0.027,-1.814 0.677,-2.66 2.245,-3.375 3.767,-1.718 7.71,-1.749 11.694,-1.532 9.359,0.511 16.012,7.358 15.951,16.723 -0.045,6.935 0.538,13.879 -0.744,20.812 -1.032,5.575 -3.436,9.929 -8.674,12.373 C 14.256,26.529 7.944,26.157 1.589,24.235 0.154,23.802 -0.021,22.837 -0.016,21.561 0.018,14.374 0,7.187 0,0 m -0.785,-63.374 c -0.003,-4.795 0.019,-9.59 -0.01,-14.385 -0.02,-3.272 -1.716,-5.179 -5,-5.259 -5.14,-0.124 -10.288,-0.117 -15.428,0.005 -2.993,0.071 -4.638,1.741 -5.043,4.679 -0.112,0.811 -0.135,1.638 -0.136,2.458 -0.006,36.442 -0.007,72.885 0.003,109.327 0,0.956 0.092,1.913 0.181,2.866 0.276,2.938 2.007,4.783 4.674,5.671 11.264,3.748 22.806,6.032 34.721,5.691 9.342,-0.267 18.187,-2.503 26.012,-7.88 8.98,-6.172 14.393,-14.766 15.69,-25.464 1.295,-10.67 1.56,-21.504 -0.169,-32.147 -2.674,-16.462 -16.037,-28.786 -32.621,-30.792 -7.142,-0.865 -14.237,-0.862 -21.113,1.649 -1.533,0.559 -1.776,-0.123 -1.769,-1.417 0.026,-5 0.01,-10.001 0.008,-15.002"
             style="fill:#5f259f;fill-opacity:1;fill-rule:nonzero;stroke:none"
             id="path30" /></g><g
           id="g32"
           transform="translate(1017.3008,381.3594)"><path
             d="m 0,0 c 0,-7.194 0.047,-14.39 -0.035,-21.584 -0.019,-1.629 0.578,-2.439 2.015,-3.116 3.751,-1.765 7.692,-1.835 11.689,-1.642 9.486,0.457 16.12,7.312 16.212,16.786 0.045,4.59 -0.03,9.182 0.026,13.772 0.046,3.657 -0.845,7.162 -1.767,10.63 -1.019,3.828 -3.557,6.619 -7.078,8.408 C 14.969,26.35 8.645,26.096 2.227,24.417 0.565,23.982 -0.064,23.153 -0.04,21.378 0.058,14.253 0,7.126 0,0 m -26.423,-21.041 c 0,18.16 -0.002,36.32 10e-4,54.481 0.001,5.695 1.281,7.394 6.651,9.08 10.537,3.307 21.294,5.35 32.364,5.1 C 23.26,47.379 33.208,44.708 41.685,37.84 49.304,31.667 53.73,23.57 54.902,13.977 56.149,3.766 56.375,-6.599 54.855,-16.765 52.371,-33.389 41.207,-44.713 24.558,-48.198 16.811,-49.82 9.006,-49.771 1.409,-47.145 c -1.823,0.631 -2.242,0.149 -2.23,-1.654 0.059,-9.389 0.03,-18.777 0.025,-28.165 -0.003,-4.401 -1.698,-6.144 -6.052,-6.17 -4.39,-0.026 -8.782,-0.023 -13.173,-0.001 -4.531,0.023 -6.353,1.857 -6.401,6.379 -10e-4,0.069 -10e-4,0.138 -10e-4,0.206 z"
             style="fill:#5f259f;fill-opacity:1;fill-rule:nonzero;stroke:none"
             id="path34" /></g><g
           id="g36"
           transform="translate(620.666,363.9971)"><path
             d="m 0,0 c 0,19.873 -0.002,39.746 0.001,59.619 0.001,4.517 1.643,6.193 6.215,6.165 3.287,-0.019 6.587,0.283 9.86,-0.267 4.971,-0.835 8.758,-4.644 9.265,-9.658 0.67,-6.625 0.144,-13.282 0.276,-19.923 0.035,-1.782 0.061,-3.566 -0.01,-5.345 -0.059,-1.513 0.332,-2.151 2.007,-1.679 4.503,1.268 9.114,1.799 13.784,2.152 17.503,1.321 31.535,-8.936 35.3,-26.008 0.872,-3.956 1.362,-7.949 1.353,-12.018 -0.04,-17.612 -0.011,-35.224 -0.016,-52.835 -10e-4,-4.132 -1.744,-5.92 -5.835,-5.973 -2.606,-0.034 -5.215,-0.042 -7.82,10e-4 -6.768,0.111 -11.94,5.288 -11.958,12.079 -0.04,14.938 -0.02,29.878 -0.012,44.817 0.002,2.953 -0.071,5.891 -0.949,8.749 C 49.976,4.71 46.667,7.384 41.716,8.133 37.096,8.831 32.577,8.231 28.062,7.21 26.166,6.78 25.579,5.842 25.584,3.925 c 0.062,-20.559 0.039,-41.116 0.037,-61.675 0,-0.821 0.021,-1.646 -0.038,-2.466 -0.27,-3.741 -2.034,-5.493 -5.759,-5.542 -4.733,-0.062 -9.468,-0.058 -14.201,-0.002 -3.87,0.046 -5.618,1.863 -5.619,5.731 C -0.004,-40.02 0,-20.01 0,0"
             style="fill:#5f259f;fill-opacity:1;fill-rule:nonzero;stroke:none"
             id="path38" /></g><g
           id="g40"
           transform="translate(739.0537,346.8535)"><path
             d="m 0,0 c 0,-5.539 -0.071,-9.992 0.017,-14.441 0.154,-7.854 3.83,-12.369 11.427,-13.332 9.051,-1.149 16.808,2.024 17.09,12.936 0.236,9.102 0.166,18.215 0.012,27.319 -0.126,7.431 -3.981,12.171 -10.559,13.479 -1.963,0.39 -3.963,0.279 -5.947,0.185 C 5.57,25.835 1.184,21.73 0.341,15.323 -0.377,9.862 0.224,4.38 0,0 m -26.943,0.249 c 0.232,4.786 -0.423,10.959 0.327,17.105 1.813,14.863 10.041,24.472 24.272,28.699 11.75,3.49 23.622,3.33 35.121,-1.13 13.129,-5.093 20.011,-15.058 21.11,-28.974 0.81,-10.254 0.382,-20.541 0.274,-30.808 -0.108,-10.401 -3.26,-19.689 -11.484,-26.687 -6.173,-5.253 -13.529,-7.686 -21.414,-8.7 -8.548,-1.1 -16.969,-0.487 -25.162,2.341 -14.065,4.853 -22.833,16.929 -23.034,31.782 -0.067,5 -0.01,10.002 -0.01,16.372"
             style="fill:#5f259f;fill-opacity:1;fill-rule:nonzero;stroke:none"
             id="path42" /></g><g
           id="g44"
           transform="translate(938.5293,353.4082)"><path
             d="m 0,0 c 3.904,0 7.81,0.026 11.713,-0.015 1.282,-0.013 1.9,0.416 1.858,1.776 C 13.507,3.88 13.63,6.007 13.522,8.123 13.151,15.403 9.143,20.111 2.155,21.025 -5.069,21.97 -11.98,19.176 -13.242,10.077 -13.62,7.35 -13.341,4.61 -13.463,1.88 c -0.063,-1.443 0.567,-1.919 1.955,-1.9 C -7.673,0.034 -3.836,-0.001 0,0 m 10.796,-15.419 c -7.064,-10e-4 -14.129,-0.055 -21.192,0.036 -1.782,0.023 -2.527,-0.66 -2.579,-2.326 -0.072,-2.321 -0.709,-4.606 -0.388,-6.956 0.867,-6.364 5.538,-10.619 12.085,-11.14 7.618,-0.606 14.681,1.276 21.473,4.518 5.354,2.556 6.423,2.263 9.62,-2.826 2.122,-3.376 3.893,-6.841 2.014,-10.981 -0.84,-1.85 -1.866,-3.588 -3.714,-4.521 -16.522,-8.351 -33.496,-9.96 -50.454,-1.881 -10.565,5.033 -16.233,14.275 -17.123,25.861 -0.948,12.356 -0.803,24.777 -0.01,37.15 0.892,13.912 10.102,24.946 23.958,28.921 9.706,2.784 19.537,2.878 29.232,0.064 13.055,-3.79 20.436,-12.791 22.578,-26.042 1.327,-8.214 0.852,-16.536 0.702,-24.813 -0.063,-3.517 -2.007,-5.053 -5.628,-5.06 -6.858,-0.012 -13.716,-0.003 -20.574,-0.004"
             style="fill:#5f259f;fill-opacity:1;fill-rule:nonzero;stroke:none"
             id="path46" /></g><g
           id="g48"
           transform="translate(807.9971,343.7773)"><path
             d="m 0,0 c -0.001,12.813 -0.004,25.626 0.001,38.439 0.002,4.347 1.423,6.123 5.531,7.498 10.355,3.466 20.988,5.465 31.892,5.449 10.531,-0.016 20.652,-1.839 29.016,-9.021 6.704,-5.756 9.798,-13.347 11.145,-21.845 0.442,-2.793 0.447,-5.595 0.449,-8.402 0.011,-17.198 0.009,-34.396 0.005,-51.595 -0.001,-4.409 -1.64,-6.089 -6.094,-6.062 -3.355,0.02 -6.724,-0.301 -10.065,0.242 -5.571,0.906 -9.181,4.988 -9.201,10.643 -0.052,14.593 0.007,29.188 -0.048,43.783 -0.012,3.279 -0.077,6.579 -0.744,9.814 -1.323,6.413 -5.542,10.015 -12.065,10.286 -3.913,0.162 -7.795,-0.092 -11.681,-0.689 -2.031,-0.311 -2.546,-1.186 -2.541,-3.105 0.052,-20.967 0.033,-41.934 0.031,-62.901 0,-0.822 0.034,-1.649 -0.043,-2.465 -0.265,-2.796 -2.17,-4.761 -4.959,-4.81 -5.28,-0.094 -10.565,-0.105 -15.845,0.002 -3.028,0.06 -4.773,2.089 -4.777,5.272 C -0.009,-26.311 0.001,-13.155 0,0"
             style="fill:#5f259f;fill-opacity:1;fill-rule:nonzero;stroke:none"
             id="path50" /></g><g
           id="g52"
           transform="translate(349.9912,379.6572)"><path
             d="m 0,0 c 0,-7.603 -0.047,-15.207 0.035,-22.81 0.019,-1.798 -0.597,-2.725 -2.308,-3.297 -4.955,-1.657 -10.033,-2.333 -15.204,-1.841 -8.75,0.833 -13.648,6.017 -14.384,14.87 -0.677,8.14 -0.185,16.291 -0.316,24.436 -0.065,3.972 0.034,7.947 -0.03,11.918 -0.026,1.647 0.534,2.316 2.262,2.305 9.189,-0.059 18.379,-0.075 27.568,0.01 1.993,0.019 2.418,-0.807 2.403,-2.575 C -0.036,15.344 0,7.672 0,0"
             style="fill:#5f259f;fill-opacity:1;fill-rule:nonzero;stroke:none"
             id="path54" /></g></g></g></g></svg>
